<svg width="16" height="16" viewBox="0 0 16 16" fill="none" xmlns="http://www.w3.org/2000/svg">
<path d="M13.3334 6.66669C13.3334 6.48988 13.2632 6.32031 13.1381 6.19528C13.0131 6.07026 12.8435 6.00002 12.6667 6.00002C12.4899 6.00002 12.3203 6.07026 12.1953 6.19528C12.0703 6.32031 12.0001 6.48988 12.0001 6.66669H13.3334ZM4.00005 6.66669C4.00005 6.48988 3.92982 6.32031 3.80479 6.19528C3.67977 6.07026 3.5102 6.00002 3.33339 6.00002C3.15658 6.00002 2.98701 6.07026 2.86198 6.19528C2.73696 6.32031 2.66672 6.48988 2.66672 6.66669H4.00005ZM13.5287 8.47135C13.6545 8.59279 13.8229 8.65999 13.9977 8.65847C14.1725 8.65695 14.3397 8.58684 14.4633 8.46323C14.5869 8.33963 14.657 8.17242 14.6585 7.99762C14.66 7.82282 14.5928 7.65442 14.4714 7.52869L13.5287 8.47135ZM8.00005 2.00002L8.47139 1.52869C8.34637 1.40371 8.17683 1.3335 8.00005 1.3335C7.82328 1.3335 7.65374 1.40371 7.52872 1.52869L8.00005 2.00002ZM1.52872 7.52869C1.46505 7.59019 1.41426 7.66375 1.37932 7.74508C1.34438 7.82642 1.32599 7.9139 1.32522 8.00242C1.32445 8.09094 1.34132 8.17873 1.37484 8.26066C1.40836 8.34259 1.45786 8.41702 1.52046 8.47962C1.58305 8.54221 1.65749 8.59171 1.73942 8.62523C1.82135 8.65876 1.90914 8.67562 1.99765 8.67485C2.08617 8.67409 2.17365 8.65569 2.25499 8.62076C2.33633 8.58582 2.40989 8.53503 2.47139 8.47135L1.52872 7.52869ZM4.66672 14.6667H11.3334V13.3334H4.66672V14.6667ZM13.3334 12.6667V6.66669H12.0001V12.6667H13.3334ZM4.00005 12.6667V6.66669H2.66672V12.6667H4.00005ZM14.4714 7.52869L8.47139 1.52869L7.52872 2.47135L13.5287 8.47135L14.4714 7.52869ZM7.52872 1.52869L1.52872 7.52869L2.47139 8.47135L8.47139 2.47135L7.52872 1.52869ZM11.3334 14.6667C11.8638 14.6667 12.3725 14.456 12.7476 14.0809C13.1227 13.7058 13.3334 13.1971 13.3334 12.6667H12.0001C12.0001 12.8435 11.9298 13.0131 11.8048 13.1381C11.6798 13.2631 11.5102 13.3334 11.3334 13.3334V14.6667ZM4.66672 13.3334C4.48991 13.3334 4.32034 13.2631 4.19532 13.1381C4.07029 13.0131 4.00005 12.8435 4.00005 12.6667H2.66672C2.66672 13.1971 2.87743 13.7058 3.25251 14.0809C3.62758 14.456 4.13629 14.6667 4.66672 14.6667V13.3334Z" fill="#1E1E24"/>
</svg>
