<svg width="16" height="16" viewBox="0 0 16 16" fill="none" xmlns="http://www.w3.org/2000/svg">
<g clip-path="url(#clip0_22_760)">
<path d="M14.3641 3.9931L12.007 1.63608C11.7467 1.37573 11.3246 1.37573 11.0642 1.63608L7.76441 4.93591C7.50406 5.19626 7.50406 5.61837 7.76441 5.87872L10.1214 8.23574C10.3818 8.49609 10.8039 8.49609 11.0642 8.23574L14.3641 4.93591C14.6244 4.67556 14.6244 4.25345 14.3641 3.9931Z" stroke="#C1C1C1" stroke-width="1.33333" stroke-linejoin="round"/>
<path d="M8.23614 10.1214L5.87912 7.76437C5.61877 7.50402 5.19666 7.50402 4.93631 7.76437L1.63648 11.0642C1.37613 11.3246 1.37613 11.7467 1.63648 12.007L3.9935 14.364C4.25385 14.6244 4.67596 14.6244 4.93631 14.364L8.23614 11.0642C8.49649 10.8039 8.49649 10.3817 8.23614 10.1214Z" stroke="#C1C1C1" stroke-width="1.33333" stroke-linejoin="round"/>
<path d="M10.3573 5.64307L5.64331 10.3571" stroke="#C1C1C1" stroke-width="1.33333" stroke-linecap="round" stroke-linejoin="round"/>
</g>
<defs>
<clipPath id="clip0_22_760">
<rect width="16" height="16" fill="white"/>
</clipPath>
</defs>
</svg>
