<svg width="16" height="16" viewBox="0 0 16 16" fill="none" xmlns="http://www.w3.org/2000/svg">
<path fill-rule="evenodd" clip-rule="evenodd" d="M5.33341 1.33337C5.4967 1.3334 5.65431 1.39334 5.77633 1.50185C5.89835 1.61036 5.97631 1.75987 5.99541 1.92204L6.00008 2.00004V3.33337C6.51022 3.33335 7.00109 3.52826 7.37226 3.87823C7.74342 4.2282 7.96682 4.70678 7.99675 5.21604L8.00008 5.33337V9.33337C8.00011 9.84351 7.8052 10.3344 7.45523 10.7055C7.10525 11.0767 6.62668 11.3001 6.11741 11.33L6.00008 11.3334V14C5.99989 14.17 5.93483 14.3334 5.81818 14.457C5.70154 14.5805 5.54211 14.6549 5.37248 14.6648C5.20286 14.6748 5.03583 14.6196 4.90553 14.5105C4.77522 14.4015 4.69148 14.2468 4.67141 14.078L4.66675 14V11.3334C4.15661 11.3334 3.66574 11.1385 3.29457 10.7885C2.92341 10.4385 2.70001 9.95997 2.67008 9.45071L2.66675 9.33337V5.33337C2.66672 4.82323 2.86163 4.33236 3.2116 3.9612C3.56158 3.59004 4.04015 3.36664 4.54941 3.33671L4.66675 3.33337V2.00004C4.66675 1.82323 4.73699 1.65366 4.86201 1.52864C4.98703 1.40361 5.1566 1.33337 5.33341 1.33337ZM11.3334 1.33337C11.4967 1.3334 11.6543 1.39334 11.7763 1.50185C11.8984 1.61036 11.9763 1.75987 11.9954 1.92204L12.0001 2.00004V4.66671C12.5102 4.66668 13.0011 4.86159 13.3723 5.21156C13.7434 5.56154 13.9668 6.04011 13.9967 6.54937L14.0001 6.66671V10.6667C14.0001 11.1768 13.8052 11.6677 13.4552 12.0389C13.1053 12.41 12.6267 12.6334 12.1174 12.6634L12.0001 12.6667V14C11.9999 14.17 11.9348 14.3334 11.8182 14.457C11.7015 14.5805 11.5421 14.6549 11.3725 14.6648C11.2029 14.6748 11.0358 14.6196 10.9055 14.5105C10.7752 14.4015 10.6915 14.2468 10.6714 14.078L10.6667 14V12.6667C10.1566 12.6667 9.66574 12.4718 9.29457 12.1219C8.92341 11.7719 8.70001 11.2933 8.67008 10.784L8.66675 10.6667V6.66671C8.66672 6.15657 8.86163 5.6657 9.2116 5.29453C9.56158 4.92337 10.0402 4.69997 10.5494 4.67004L10.6667 4.66671V2.00004C10.6667 1.82323 10.737 1.65366 10.862 1.52864C10.987 1.40361 11.1566 1.33337 11.3334 1.33337ZM12.0001 6.00004H10.6667C10.5035 6.00006 10.3459 6.06001 10.2238 6.16852C10.1018 6.27702 10.0239 6.42654 10.0047 6.58871L10.0001 6.66671V10.6667C10.0001 10.83 10.0601 10.9876 10.1686 11.1096C10.2771 11.2316 10.4266 11.3096 10.5887 11.3287L10.6667 11.3334H12.0001C12.1634 11.3334 12.321 11.2734 12.443 11.1649C12.565 11.0564 12.643 10.9069 12.6621 10.7447L12.6667 10.6667V6.66671C12.6667 6.50342 12.6068 6.34582 12.4983 6.22379C12.3898 6.10177 12.2402 6.02381 12.0781 6.00471L12.0001 6.00004ZM6.00008 4.66671H4.66675C4.50346 4.66673 4.34586 4.72668 4.22383 4.83518C4.10181 4.94369 4.02385 5.09321 4.00475 5.25537L4.00008 5.33337V9.33337C4.0001 9.49666 4.06005 9.65427 4.16856 9.77629C4.27706 9.89831 4.42658 9.97627 4.58875 9.99537L4.66675 10H6.00008C6.16337 10 6.32097 9.94007 6.443 9.83156C6.56502 9.72306 6.64298 9.57354 6.66208 9.41137L6.66675 9.33337V5.33337C6.66673 5.17009 6.60678 5.01248 6.49827 4.89046C6.38977 4.76844 6.24025 4.69048 6.07808 4.67137L6.00008 4.66671Z" fill="#C1C1C1"/>
</svg>
